<svg width="250" height="200" viewBox="0 0 120 80" xmlns="http://www.w3.org/2000/svg">
  <style>
    .mark {
      stroke: #222222; 
      stroke-width: 1.3; /* Slightly increased for overall density */
      stroke-linecap: round;
      fill: none; 
    }
    .dense-mark {
      stroke: #222222;
      stroke-width: 1.8; /* Maintained for the densest core */
      stroke-linecap: round;
      fill: none;
    }
  </style>

  <!-- Central Dense Core - already quite dense, adding a few more for good measure -->
  <path class="dense-mark" d="M58,38 q1,2 -1,2"/> <path class="dense-mark" d="M59,39 q-1,2 1,1.5"/>
  <path class="dense-mark" d="M60,40 l-1.5,-2.5"/> <path class="dense-mark" d="M61,38.5 l1.5,2"/>
  <path class="dense-mark" d="M62,37 q-2,1 -1.5,2.5"/> <path class="dense-mark" d="M57,40 q2,0.5 1,2.5"/>
  <path class="dense-mark" d="M55,42 q2.5,-0.5 1.5,2"/> <path class="dense-mark" d="M56,41.5 l-1,2.5"/>
  <path class="dense-mark" d="M59,43 l0.5,2.5 l-1.5,0.5"/> <path class="dense-mark" d="M60.5,42.5 q1,2 -1,2"/>
  <path class="dense-mark" d="M63,44 l-2.5,1 l1,-1.5"/> <path class="dense-mark" d="M62,43.5 l2,1.5"/>
  <path class="dense-mark" d="M57,46 q-0.5,2 1.5,1.5"/> <path class="dense-mark" d="M58.5,45 l2.5,1"/>
  <path class="dense-mark" d="M61,47 q1.5,-2 0,2.5"/> <path class="dense-mark" d="M60,46.5 l-1,2"/>
  <path class="dense-mark" d="M54,36 l1.5,1.5"/> <path class="dense-mark" d="M55.5,37.5 q1,1.5 -0.5,2"/>
  <path class="dense-mark" d="M65,39 l-1.5,1.5"/> <path class="dense-mark" d="M64,38 q-1.5,1 -1,2.5"/>
  <path class="dense-mark" d="M52,40 q1.5,-1.5 2,0.5"/> <path class="dense-mark" d="M53.5,41 l1,2"/>
  <path class="dense-mark" d="M66,43 q-1.5,1.5 -2,-0.5"/> <path class="dense-mark" d="M67,41.5 l-2.5,1"/>
  <path class="dense-mark" d="M59,39.5 l1,2"/> <path class="dense-mark" d="M58,37.5 q1,2 2,0.5"/>
  <path class="dense-mark" d="M57,37 l2,-1"/> <path class="dense-mark" d="M56,38.5 l1.5,2"/>
  <path class="dense-mark" d="M61,36 q-0.5,2 1,1"/> <path class="dense-mark" d="M62.5,35.5 l0.5,2.5"/>
  <path class="dense-mark" d="M56,41 q1,1 0,2.5"/> <path class="dense-mark" d="M55,40 l2,1.5"/>
  <path class="dense-mark" d="M64,41.5 l-2,1.5"/> <path class="dense-mark" d="M65,40.5 q-1,2 -2,1"/>
  <path class="dense-mark" d="M58,44.5 l1.5,-2"/> <path class="dense-mark" d="M59.5,43.5 q1,-1.5 2,0"/>
  <path class="dense-mark" d="M60.5,45.5 q-1.5,1 -0.5,2.5"/> <path class="dense-mark" d="M61.5,44.5 l1,2"/>
  <path class="dense-mark" d="M55.5,39 l0.5,2.5"/> <path class="dense-mark" d="M54,39.5 q1,1.5 2,0"/>
  <path class="dense-mark" d="M63.5,38 l-0.5,2"/> <path class="dense-mark" d="M64.5,37.5 q-1,2 -2,0.5"/>
  <path class="dense-mark" d="M57.5,43 q-0.5,1 1,0.5"/> <path class="dense-mark" d="M56.5,42.5 l2,1"/>
  <path class="dense-mark" d="M62,45.5 l1,-1.5"/> <path class="dense-mark" d="M63,46 q-1.5,-1 -0.5,2"/>
  <path class="dense-mark" d="M59,41.5 q0.5,-1.5 1.5,0"/> <path class="dense-mark" d="M58,42 q2,1 1.5,2.5"/>
  <path class="dense-mark" d="M58.5,42.5 l2,1"/> <path class="dense-mark" d="M59.5,43 l-1.5,2"/>
  <path class="dense-mark" d="M60,37.5 q0.5,1.5 -1,1"/> <path class="dense-mark" d="M61,36.5 l1,2.5"/>
  <path class="dense-mark" d="M61.5,40.5 l-1.5,2"/> <path class="dense-mark" d="M62.5,39.5 q1,2 2,0"/>
  <path class="dense-mark" d="M56.5,44 l0.5,2"/> <path class="dense-mark" d="M55.5,45 q1.5,1 2.5,-0.5"/>
  <path class="dense-mark" d="M54,44 l2,-1"/> <path class="dense-mark" d="M53,43.5 l1.5,2"/>
  <path class="dense-mark" d="M64.5,45.5 q-1.5,0.5 -1,2"/> <path class="dense-mark" d="M65.5,46 l-2,1"/>
  <path class="dense-mark" d="M53,42 l2.5,0.5"/> <path class="dense-mark" d="M52,41.5 q1.5,2 3,0.5"/>
  <path class="dense-mark" d="M66,40.5 l-2.5,0.5"/> <path class="dense-mark" d="M67,41 q-1.5,1.5 -3,0"/>
  <path class="dense-mark" d="M56,48 l1,-2"/> <path class="dense-mark" d="M55,47.5 q2,1.5 3,-0.5"/>
  <path class="dense-mark" d="M62,49 l-1,-1.5"/> <path class="dense-mark" d="M63,48.5 q-2,-1 -0.5,2"/>
  <path class="dense-mark" d="M58,36 l1,1.5"/> <path class="dense-mark" d="M57,35.5 q1.5,2 2.5,0"/>
  <path class="dense-mark" d="M61,42.5 l-1,1"/> <path class="dense-mark" d="M60,43 q-1.5,1.5 -0.5,2.5"/>
  <path class="dense-mark" d="M57,41 l2.5,0.5 q-1,1.5 0,2.5"/> <path class="dense-mark" d="M61,41 l-2.5,0.5 q1,1.5 0,2.5"/>
  <path class="dense-mark" d="M59,44 l2,2 l-2,0.5"/> <path class="dense-mark" d="M59,37 l-2,2 l2,0.5"/>
  <!-- More central fills -->
  <path class="dense-mark" d="M58,40.5 l2.5,1"/> <path class="dense-mark" d="M60,41.5 l-2.5,1"/>
  <path class="dense-mark" d="M57,42.5 l1,2.5"/> <path class="dense-mark" d="M62,42.5 l-1,2.5"/>
  <path class="dense-mark" d="M59.5,38.5 l0.5,3"/> <path class="dense-mark" d="M59.5,45.5 l0.5,-3"/>

  <!-- Surrounding marks - Increased density by adding more variations and filling gaps -->
  <path class="mark" d="M50,33 q2,3 0,5"/> <path class="mark" d="M51,35 q1,2 -1,2.5"/>
  <path class="mark" d="M48,30 l3,4"/> <path class="mark" d="M49,32 l2,3"/>
  <path class="mark" d="M45,35 l2,-4 q1,3 -2,2"/> <path class="mark" d="M46,33 l1.5,-3 q0.5,2.5 -1.5,2"/>
  <path class="mark" d="M42,40 q4,-2 3,3"/> <path class="mark" d="M43,39 q3,-1.5 2,2.5"/>
  <path class="mark" d="M40,45 l4,2 l-3,-2"/> <path class="mark" d="M41,46 l3,1.5 l-2.5,-1"/>
  <path class="mark" d="M43,50 q-2,3 2,3.5"/> <path class="mark" d="M44,51 q-1.5,2.5 1.5,2.5"/>
  <path class="mark" d="M47,55 l-3,-4"/> <path class="mark" d="M48,53 l-2.5,-3"/>
  <path class="mark" d="M53,56 q3,-3 1,4"/> <path class="mark" d="M54,54 q2.5,-2.5 0.5,3"/>
  <path class="mark" d="M59,55 l2,4 l-3,-1"/> <path class="mark" d="M60,56 l1.5,3 l-2.5,-0.5"/>
  <path class="mark" d="M65,57 q-3,-3 -1,4"/> <path class="mark" d="M66,55 q-2.5,-2.5 -0.5,3"/>
  <path class="mark" d="M70,54 l-4,-2 l3,2"/> <path class="mark" d="M71,53 l-3,-1.5 l2.5,1.5"/>
  <path class="mark" d="M75,50 q-2,-3 1,-4"/> <path class="mark" d="M76,48 q-1.5,-2.5 0.5,-3"/>
  <path class="mark" d="M78,45 l-3,4"/> <path class="mark" d="M79,47 l-2.5,3"/>
  <path class="mark" d="M76,38 q3,2 1,5"/> <path class="mark" d="M77,40 q2.5,1.5 0.5,3.5"/>
  <path class="mark" d="M72,34 l-4,2 l3,-3"/> <path class="mark" d="M73,32 l-3,1.5 l2.5,-2.5"/>
  <path class="mark" d="M68,30 q-1,4 3,3"/> <path class="mark" d="M69,32 q-0.5,3 2.5,2"/>
  <path class="mark" d="M60,28 l-2,5"/> <path class="mark" d="M61,26 l-1.5,4"/>
  <path class="mark" d="M55,29 q3,2 0,5"/> <path class="mark" d="M56,31 q2.5,1.5 -0.5,3.5"/>
  <path class="mark" d="M63,33 q2,-3 -2,-3"/> <path class="mark" d="M64,31 q1.5,-2.5 -1.5,-2.5"/>
  
  <path class="mark" d="M52,31 q1,2.5 -1,2"/> <path class="mark" d="M53,29 q0.5,2 -0.5,1.5"/>
  <path class="mark" d="M46,28 l2,3"/> <path class="mark" d="M47,26 l1.5,2.5"/>
  <path class="mark" d="M43,38 q2.5,-1 1,3"/> <path class="mark" d="M44,36 q2,-0.5 0.5,2.5"/>
  <path class="mark" d="M38,42 l3.5,1.5"/> <path class="mark" d="M39,44 l3,1"/>
  <path class="mark" d="M41,48 q-1,3 2.5,2"/> <path class="mark" d="M42,50 q-0.5,2.5 2,1.5"/>
  <path class="mark" d="M45,52 l-2,3.5"/> <path class="mark" d="M46,54 l-1.5,3"/>
  <path class="mark" d="M50,58 q2.5,-2 0,3"/> <path class="mark" d="M51,60 q2,-1.5 -0.5,2.5"/>
  <path class="mark" d="M57,58 l3.5,2"/> <path class="mark" d="M58,60 l3,1.5"/>
  <path class="mark" d="M67,59 q-2,2.5 2,1"/> <path class="mark" d="M68,61 q-1.5,2 1.5,0.5"/>
  <path class="mark" d="M72,56 l-3,3"/> <path class="mark" d="M73,58 l-2.5,2.5"/>
  <path class="mark" d="M77,52 q1.5,-3 -1,3"/> <path class="mark" d="M78,54 q1,-2.5 -0.5,2.5"/>
  <path class="mark" d="M80,42 l-3.5,-1"/> <path class="mark" d="M81,40 l-3,-0.5"/>
  <path class="mark" d="M78,36 q-1,3.5 2,2"/> <path class="mark" d="M79,34 q-0.5,3 1.5,1.5"/>
  <path class="mark" d="M74,31 l2,3"/> <path class="mark" d="M75,29 l1.5,2.5"/>
  <path class="mark" d="M65,26 q2.5,-1 1,3.5"/> <path class="mark" d="M66,24 q2,-0.5 0.5,3"/>
  <path class="mark" d="M58,26 l-2.5,2.5"/> <path class="mark" d="M59,24 l-2,2"/>
  <path class="mark" d="M51,26 l3,-1.5"/> <path class="mark" d="M52,24 l2.5,-1"/>

  <!-- Outer marks - Increased density -->
  <path class="mark" d="M35,28 l5,2"/> <path class="mark" d="M36,26 l4,1.5"/> <path class="mark" d="M33,30 l4.5,2.5"/>
  <path class="mark" d="M30,35 q3,5 6,2"/> <path class="mark" d="M31,33 q2.5,4 5,1.5"/> <path class="mark" d="M28,37 q3.5,4.5 6.5,2.5"/>
  <path class="mark" d="M28,43 l4,-5"/> <path class="mark" d="M29,41 l3.5,-4"/> <path class="mark" d="M26,45 l4.5,-5.5"/>
  <path class="mark" d="M30,50 q-3,4 2,5"/> <path class="mark" d="M31,52 q-2.5,3.5 1.5,4"/> <path class="mark" d="M28,48 q-3.5,4.5 2.5,5.5"/>
  <path class="mark" d="M36,58 l2,-6"/> <path class="mark" d="M37,60 l1.5,-5"/> <path class="mark" d="M34,56 l2.5,-6.5"/>
  <path class="mark" d="M45,62 q5,-3 3,4"/> <path class="mark" d="M46,60 q4.5,-2.5 2.5,3"/> <path class="mark" d="M43,64 q5.5,-3.5 3.5,4.5"/>
  <path class="mark" d="M55,65 l-5,-2"/> <path class="mark" d="M56,67 l-4.5,-1.5"/> <path class="mark" d="M53,63 l-5.5,-2.5"/>
  <path class="mark" d="M65,64 q-3,-5 -6,-2"/> <path class="mark" d="M66,62 q-2.5,-4.5 -5.5,-1.5"/> <path class="mark" d="M63,66 q-3.5,-5.5 -6.5,-2.5"/>
  <path class="mark" d="M75,61 l-4,5"/> <path class="mark" d="M76,63 l-3.5,4"/> <path class="mark" d="M73,59 l-4.5,5.5"/>
  <path class="mark" d="M83,55 q2,-4 -3,-4"/> <path class="mark" d="M84,53 q1.5,-3.5 -2.5,-3.5"/> <path class="mark" d="M81,57 q2.5,-4.5 -3.5,-4.5"/>
  <path class="mark" d="M88,48 l-6,3"/> <path class="mark" d="M89,50 l-5,2.5"/> <path class="mark" d="M86,46 l-6.5,3.5"/>
  <path class="mark" d="M90,38 q-5,2 -3,-4"/> <path class="mark" d="M91,40 q-4.5,1.5 -2.5,-3.5"/> <path class="mark" d="M88,36 q-5.5,2.5 -3.5,-4.5"/>
  <path class="mark" d="M85,30 l3,-5"/> <path class="mark" d="M86,28 l2.5,-4"/> <path class="mark" d="M83,32 l3.5,-5.5"/>
  <path class="mark" d="M75,25 q2,5 5,2"/> <path class="mark" d="M76,23 q1.5,4.5 4.5,1.5"/> <path class="mark" d="M73,27 q2.5,5.5 5.5,2.5"/>
  <path class="mark" d="M65,22 l-4,4"/> <path class="mark" d="M66,20 l-3.5,3.5"/> <path class="mark" d="M63,24 l-4.5,4.5"/>
  <path class="mark" d="M50,23 q-5,1 -2,5"/> <path class="mark" d="M51,21 q-4.5,0.5 -1.5,4"/> <path class="mark" d="M48,25 q-5.5,1.5 -2.5,5.5"/>
  <path class="mark" d="M40,25 l2,-4"/> <path class="mark" d="M41,23 l1.5,-3.5"/> <path class="mark" d="M38,27 l2.5,-4.5"/>

  <!-- Dots / Very short strokes - Increased density -->
  <path class="mark" d="M25,55 l1,1"/> <path class="mark" d="M26,56 l1,0.5"/> <path class="mark" d="M24,54 l0.5,1"/>
  <path class="mark" d="M92,52 l1,1"/> <path class="mark" d="M93,53 l0.5,1"/> <path class="mark" d="M91,51 l1,0.5"/>
  <path class="mark" d="M80,20 l-1,1"/> <path class="mark" d="M81,21 l-1,0.5"/> <path class="mark" d="M79,19 l-0.5,1"/>
  <path class="mark" d="M40,18 l1,-1"/> <path class="mark" d="M41,19 l0.5,-1"/> <path class="mark" d="M39,17 l1,-0.5"/>
  <path class="mark" d="M58,68 l1,0.5"/> <path class="mark" d="M59,69 l0.5,0.5"/> <path class="mark" d="M57,67 l1,0.5"/>
  <path class="mark" d="M33,48 l0.5,1"/> <path class="mark" d="M34,49 l0.5,0.5"/> <path class="mark" d="M32,47 l0.5,1"/>
  <path class="mark" d="M95,43 l-1,0.5"/> <path class="mark" d="M96,44 l-1,0.5"/> <path class="mark" d="M94,42 l-0.5,0.5"/>
  <path class="mark" d="M60,18 l0.5,-1"/> <path class="mark" d="M61,19 l0.5,-0.5"/> <path class="mark" d="M59,17 l0.5,-1"/>
  <path class="mark" stroke-width="1" d="M20,30 l3,1" /> <path class="mark" stroke-width="1" d="M18,28 l2.5,1"/> <path class="mark" stroke-width="1" d="M22,32 l3.5,1.5"/>
  <path class="mark" stroke-width="1" d="M22,60 l2,-3" /> <path class="mark" stroke-width="1" d="M20,62 l1.5,-2.5"/> <path class="mark" stroke-width="1" d="M24,58 l2.5,-3.5"/>
  <path class="mark" stroke-width="1" d="M40,70 l1,2" /> <path class="mark" stroke-width="1" d="M38,72 l0.5,1.5"/> <path class="mark" stroke-width="1" d="M42,68 l1.5,2.5"/>
  <path class="mark" stroke-width="1" d="M60,72 l-2,-1" /> <path class="mark" stroke-width="1" d="M58,74 l-1.5,-0.5"/> <path class="mark" stroke-width="1" d="M62,70 l-2.5,-1.5"/>
  <path class="mark" stroke-width="1" d="M80,70 l-1,2" /> <path class="mark" stroke-width="1" d="M78,72 l-0.5,1.5"/> <path class="mark" stroke-width="1" d="M82,68 l-1.5,2.5"/>
  <path class="mark" stroke-width="1" d="M100,60 l-3,-1" /> <path class="mark" stroke-width="1" d="M98,62 l-2.5,-0.5"/> <path class="mark" stroke-width="1" d="M102,58 l-3.5,-1.5"/>
  <path class="mark" stroke-width="1" d="M105,40 l-2,2" /> <path class="mark" stroke-width="1" d="M103,42 l-1.5,1.5"/> <path class="mark" stroke-width="1" d="M107,38 l-2.5,2.5"/>
  <path class="mark" stroke-width="1" d="M95,25 l1,-3" /> <path class="mark" stroke-width="1" d="M93,27 l0.5,-2.5"/> <path class="mark" stroke-width="1" d="M97,23 l1.5,-3.5"/>
  <path class="mark" stroke-width="1" d="M70,15 l2,1.5" /> <path class="mark" stroke-width="1" d="M68,13 l1.5,1"/> <path class="mark" stroke-width="1" d="M72,17 l2.5,2"/>
  <path class="mark" stroke-width="1" d="M50,16 l-1.5,2" /> <path class="mark" stroke-width="1" d="M48,14 l-1,1.5"/> <path class="mark" stroke-width="1" d="M52,18 l-2,2.5"/>
  <path class="mark" stroke-width="1" d="M30,20 l2.5,-1" /> <path class="mark" stroke-width="1" d="M28,18 l2,-0.5"/> <path class="mark" stroke-width="1" d="M32,22 l3,-1.5"/>
  <path class="mark" stroke-width="0.8" d="M15,45 l2,1"/> <path class="mark" stroke-width="0.8" d="M13,43 l1.5,0.5"/> <path class="mark" stroke-width="0.8" d="M17,47 l2.5,1.5"/>
  <path class="mark" stroke-width="0.8" d="M110,30 l-2,2"/> <path class="mark" stroke-width="0.8" d="M108,32 l-1.5,1.5"/> <path class="mark" stroke-width="0.8" d="M112,28 l-2.5,2.5"/>
  <path class="mark" stroke-width="0.8" d="M50,10 l1,2"/> <path class="mark" stroke-width="0.8" d="M48,8 l0.5,1.5"/> <path class="mark" stroke-width="0.8" d="M52,12 l1.5,2.5"/>
  <path class="mark" stroke-width="0.8" d="M70,73 l-1,-2"/> <path class="mark" stroke-width="0.8" d="M68,75 l-0.5,-1.5"/> <path class="mark" stroke-width="0.8" d="M72,71 l-1.5,-2.5"/>

</svg>